<svg xmlns="http://www.w3.org/2000/svg" width="20.484" height="20.484" viewBox="0 0 20.484 20.484">
  <path id="Icon_open-magnifying-glass" data-name="Icon open-magnifying-glass" d="M8.881-.02a8.881,8.881,0,0,0,0,17.762,8.778,8.778,0,0,0,4.212-1.04,2.537,2.537,0,0,0,.33.33l2.537,2.537a2.588,2.588,0,1,0,3.654-3.654l-2.537-2.537a2.538,2.538,0,0,0-.406-.33,8.762,8.762,0,0,0,1.116-4.212A8.891,8.891,0,0,0,8.907-.045Zm0,2.537a6.314,6.314,0,0,1,6.344,6.344,6.363,6.363,0,0,1-1.675,4.364l-.076.076a2.537,2.537,0,0,0-.33.33,6.35,6.35,0,0,1-4.288,1.6,6.344,6.344,0,0,1,0-12.687Z" transform="translate(0 0.045)" fill="#fff"/>
</svg>
