<svg xmlns="http://www.w3.org/2000/svg" xmlns:xlink="http://www.w3.org/1999/xlink" width="112.903" height="34.444" viewBox="0 0 112.903 34.444">
  <defs>
    <linearGradient id="linear-gradient" x1="-0.719" y1="-0.874" x2="0.979" y2="1" gradientUnits="objectBoundingBox">
      <stop offset="0" stop-color="#e101f6"/>
      <stop offset="1" stop-color="#fff"/>
    </linearGradient>
  </defs>
  <path id="Path_3" data-name="Path 3" d="M41.712-90.735l-17.328,13.2-17.37-13.2v33.9h7.8V-75.178l9.57,6.914,9.57-6.914v18.339h7.757ZM35.22-77.666,24.385-69.824,13.55-77.666V-58.1H8.28v-30.06l16.1,12.184L40.447-88.163V-58.1H35.22Zm21,21.291A9.217,9.217,0,0,0,60.768-57.6v.759H68.02V-79.394H60.768v.843a9.509,9.509,0,0,0-4.553-1.307,10.8,10.8,0,0,0-4.3.928,11.4,11.4,0,0,0-3.541,2.53A12.025,12.025,0,0,0,45.127-68.1a12.077,12.077,0,0,0,3.2,8.263A10.734,10.734,0,0,0,56.215-56.375Zm0-22.218a6.6,6.6,0,0,1,5.818,2.951v-2.487h4.722V-58.1H62.033v-2.783a6.157,6.157,0,0,1-5.818,3.246c-5.439,0-9.823-4.68-9.823-10.456a10.863,10.863,0,0,1,2.909-7.42A9.476,9.476,0,0,1,56.215-78.593Zm.59,16.274A5.466,5.466,0,0,0,62.286-68.1a5.912,5.912,0,0,0-1.56-4.132,5.379,5.379,0,0,0-3.921-1.644,5.546,5.546,0,0,0-3.963,1.644A5.8,5.8,0,0,0,51.2-68.1a5.827,5.827,0,0,0,1.686,4.174A5.512,5.512,0,0,0,56.805-62.32Zm0-10.287A4.07,4.07,0,0,1,59.8-71.342,4.56,4.56,0,0,1,61.021-68.1,4.663,4.663,0,0,1,59.8-64.807a4.035,4.035,0,0,1-2.993,1.223,4.3,4.3,0,0,1-3.078-1.223A4.769,4.769,0,0,1,52.463-68.1a4.665,4.665,0,0,1,1.265-3.246A4.335,4.335,0,0,1,56.805-72.606ZM78.644-68.1a5.073,5.073,0,0,1,1.1-3.457,3.4,3.4,0,0,1,2.572-1.054A5.249,5.249,0,0,1,84-72.354l.843.3v-7.631l-.548-.084a10.21,10.21,0,0,0-1.56-.084,7.39,7.39,0,0,0-4.089,1.18v-.717H71.392v22.555h7.251ZM72.657-78.129h4.722v2.4l1.1-1.138a5.806,5.806,0,0,1,4.258-1.729h.843v4.806a5.972,5.972,0,0,0-1.265-.084,4.678,4.678,0,0,0-3.5,1.476,6.373,6.373,0,0,0-1.433,4.3V-58.1H72.657Zm24.79,21.754a11.853,11.853,0,0,0,8.095-3.162,11.618,11.618,0,0,0,3.752-7.673l.042-.675h-7.378l-.042.548a4.361,4.361,0,0,1-4.469,3.752,4.2,4.2,0,0,1-3.035-1.223A4.619,4.619,0,0,1,93.1-68.1a4.52,4.52,0,0,1,1.307-3.246,4.31,4.31,0,0,1,3.035-1.265,4.241,4.241,0,0,1,3.5,1.644l.379.506,5.776-4.511-.422-.464a11.974,11.974,0,0,0-4.047-3.2,11.582,11.582,0,0,0-5.186-1.223A11.58,11.58,0,0,0,89.184-76.4,11.666,11.666,0,0,0,85.769-68.1a12.037,12.037,0,0,0,.928,4.553,11.713,11.713,0,0,0,2.487,3.71A11.58,11.58,0,0,0,97.447-56.375Zm0-22.218a10.286,10.286,0,0,1,4.638,1.1,10.879,10.879,0,0,1,3.2,2.361l-3.794,2.951a5.253,5.253,0,0,0-4.047-1.686,5.619,5.619,0,0,0-3.963,1.644A5.8,5.8,0,0,0,91.84-68.1a5.827,5.827,0,0,0,1.686,4.174,5.512,5.512,0,0,0,3.921,1.6,5.723,5.723,0,0,0,3.794-1.349,5.661,5.661,0,0,0,1.813-2.951h4.933a10.433,10.433,0,0,1-3.288,6.155,10.721,10.721,0,0,1-7.251,2.825,10.2,10.2,0,0,1-7.336-3.078A10.368,10.368,0,0,1,87.034-68.1a10.393,10.393,0,0,1,3.078-7.42A10.2,10.2,0,0,1,97.447-78.593Zm18.592,22.3a3.91,3.91,0,0,0,2.825-1.138,3.755,3.755,0,0,0,1.054-2.7,3.967,3.967,0,0,0-1.054-2.74,3.983,3.983,0,0,0-2.825-1.138,3.883,3.883,0,0,0-2.783,1.138,4,4,0,0,0-1.1,2.74,3.979,3.979,0,0,0,1.1,2.7A3.956,3.956,0,0,0,116.039-56.291Zm0-6.45a2.446,2.446,0,0,1,1.9.759,2.614,2.614,0,0,1,.717,1.855,2.481,2.481,0,0,1-.675,1.813,2.6,2.6,0,0,1-1.939.759,2.642,2.642,0,0,1-1.9-.759,2.585,2.585,0,0,1-.717-1.813,2.614,2.614,0,0,1,.717-1.855A2.574,2.574,0,0,1,116.039-62.741Z" transform="translate(-7.015 90.735)" fill="url(#linear-gradient)"/>
</svg>
